<?xml version="1.0" encoding="iso-8859-1"?>
<!-- Generator: Adobe Illustrator 19.0.0, SVG Export Plug-In . SVG Version: 6.00 Build 0)  -->
<svg version="1.1" id="Capa_1" xmlns="http://www.w3.org/2000/svg" xmlns:xlink="http://www.w3.org/1999/xlink" x="0px" y="0px"
	 viewBox="0 0 512 512" style="enable-background:new 0 0 512 512;" xml:space="preserve">
<g>
	<g>
		<path d="M483.727,282.042c18.514-29.34,28.272-63.116,28.272-98.043C511.999,82.542,429.457,0,328,0
			c-33.984,0-67.188,9.341-96.02,27.013c-4.709,2.886-6.187,9.042-3.3,13.751c2.885,4.708,9.041,6.187,13.751,3.3
			C268.117,28.321,297.707,20,328.001,20C418.43,20,492,93.569,492,183.999c0,32.797-9.647,64.448-27.9,91.531
			c-2.421,3.592-2.214,8.236,0.277,11.571l10.958,40.896l-43.984-11.786c-2.881-0.772-5.956-0.219-8.386,1.511
			c-27.838,19.808-60.676,30.277-94.964,30.277c-19.533,0-38.638-3.412-56.808-10.125c-12.791-47.105-49.958-84.273-97.063-97.063
			c-6.714-18.17-10.128-37.272-10.128-56.811c0-30.63,8.495-60.501,24.567-86.384c2.913-4.692,1.471-10.857-3.221-13.771
			c-4.69-2.913-10.857-1.472-13.771,3.221c-18.041,29.054-27.576,62.573-27.576,96.934c0,17.987,2.582,35.649,7.672,52.68
			c-4.499-0.444-9.059-0.677-13.672-0.677c-76.093,0-137.999,61.907-137.999,137.999c0,27.309,7.896,53.524,22.878,76.122
			l-10.702,39.945c-0.925,3.451,0.062,7.133,2.588,9.66c2.526,2.526,6.207,3.512,9.659,2.588l40.935-10.969
			C87.16,504.872,112.176,512,138.001,512c26.285,0,51.852-7.42,73.937-21.458c4.661-2.963,6.037-9.143,3.075-13.804
			c-2.963-4.661-9.145-6.037-13.804-3.075C182.335,485.66,160.48,492,138.001,492c-23.4,0-46.017-6.838-65.404-19.776
			c-2.393-1.597-5.358-2.087-8.139-1.341l-28.48,7.631l7.414-27.669c0.773-2.885,0.216-5.965-1.519-8.396
			c-14.309-20.056-21.872-43.725-21.872-68.449c0-65.065,52.935-117.999,117.999-117.999S256,308.936,256,374.001
			c0,13.895-2.389,27.494-7.101,40.42c-1.892,5.188,0.781,10.928,5.97,12.82c5.188,1.891,10.929-0.781,12.82-5.97
			c5.515-15.127,8.311-31.031,8.311-47.27c0-4.613-0.232-9.172-0.676-13.67c17.032,5.089,34.696,7.667,52.677,7.667
			c36.875,0,72.26-10.796,102.646-31.271l56.242,15.07c3.453,0.925,7.133-0.062,9.66-2.588c2.526-2.526,3.513-6.208,2.588-9.66
			L483.727,282.042z"/>
	</g>
</g>
<g>
	<g>
		<path d="M379.55,205.295H277.697c-5.523,0-10,4.477-10,10c0,33.595,27.332,60.927,60.927,60.927
			c33.595,0,60.927-27.332,60.927-60.927C389.55,209.772,385.072,205.295,379.55,205.295z M328.624,256.221
			c-19.118,0-35.217-13.178-39.691-30.927h79.383C363.84,243.043,347.741,256.221,328.624,256.221z"/>
	</g>
</g>
<g>
	<g>
		<path d="M406.487,149.819c-2.898-4.703-9.059-6.165-13.759-3.269l-1.304,0.805c-4.698,2.903-6.154,9.065-3.25,13.763
			c1.891,3.062,5.165,4.746,8.516,4.746c1.793,0,3.609-0.482,5.247-1.495l1.281-0.791
			C407.92,160.681,409.384,154.521,406.487,149.819z"/>
	</g>
</g>
<g>
	<g>
		<path d="M269.08,149.818c-2.898-4.702-9.06-6.164-13.759-3.268l-1.304,0.805c-4.699,2.903-6.154,9.065-3.25,13.763
			c1.891,3.061,5.165,4.745,8.516,4.745c1.793,0,3.609-0.482,5.247-1.495l1.281-0.791C270.513,160.68,271.977,154.52,269.08,149.818
			z"/>
	</g>
</g>
<g>
	<g>
		<path d="M90.071,366.929c-1.86-1.86-4.44-2.93-7.07-2.93c-2.63,0-5.209,1.07-7.07,2.93c-1.86,1.86-2.93,4.44-2.93,7.07
			c0,2.63,1.07,5.21,2.93,7.07s4.44,2.93,7.07,2.93c2.63,0,5.21-1.07,7.07-2.93s2.93-4.44,2.93-7.07
			C93.001,371.369,91.931,368.789,90.071,366.929z"/>
	</g>
</g>
<g>
	<g>
		<path d="M145.071,366.929c-1.86-1.86-4.44-2.93-7.07-2.93c-2.63,0-5.209,1.07-7.07,2.93c-1.86,1.86-2.93,4.44-2.93,7.07
			c0,2.63,1.07,5.21,2.93,7.07s4.44,2.93,7.07,2.93c2.63,0,5.21-1.07,7.07-2.93s2.93-4.44,2.93-7.07
			C148.001,371.369,146.931,368.789,145.071,366.929z"/>
	</g>
</g>
<g>
	<g>
		<path d="M200.07,366.929c-1.86-1.86-4.44-2.93-7.07-2.93s-5.209,1.07-7.07,2.93c-1.86,1.86-2.93,4.44-2.93,7.07
			c0,2.63,1.07,5.21,2.93,7.07s4.44,2.93,7.07,2.93s5.21-1.07,7.07-2.93s2.93-4.44,2.93-7.07
			C203,371.369,201.93,368.789,200.07,366.929z"/>
	</g>
</g>
<g>
	<g>
		<path d="M244.83,447.128c-1.86-1.86-4.44-2.93-7.07-2.93c-2.64,0-5.21,1.07-7.07,2.93s-2.93,4.44-2.93,7.07
			c0,2.63,1.07,5.21,2.93,7.07s4.43,2.93,7.07,2.93c2.63,0,5.21-1.07,7.07-2.93s2.93-4.44,2.93-7.07
			C247.76,451.568,246.69,448.988,244.83,447.128z"/>
	</g>
</g>
<g>
	<g>
		<path d="M212.371,53.561c-1.86-1.86-4.44-2.92-7.07-2.92c-2.64,0-5.21,1.06-7.07,2.92c-1.87,1.87-2.93,4.44-2.93,7.08
			c0,2.63,1.06,5.21,2.93,7.07c1.86,1.86,4.429,2.92,7.07,2.92c2.63,0,5.21-1.06,7.07-2.92c1.86-1.86,2.93-4.44,2.93-7.07
			C215.301,58.001,214.231,55.431,212.371,53.561z"/>
	</g>
</g>
<g>
</g>
<g>
</g>
<g>
</g>
<g>
</g>
<g>
</g>
<g>
</g>
<g>
</g>
<g>
</g>
<g>
</g>
<g>
</g>
<g>
</g>
<g>
</g>
<g>
</g>
<g>
</g>
<g>
</g>
</svg>
