<svg height="511pt" viewBox="1 -31 511.99998 511" width="511pt" xmlns="http://www.w3.org/2000/svg"><path d="m128 448.5c-8.835938 0-16-7.164062-16-16v-80h-64c-26.511719 0-48-21.492188-48-48v-256c0-26.511719 21.488281-48 48-48h416c26.511719 0 48 21.488281 48 48v256c0 26.507812-21.488281 48-48 48h-233.375l-91.3125 91.3125c-3 3-7.070312 4.6875-11.3125 4.6875zm-80-416c-8.835938 0-16 7.164062-16 16v256c0 8.835938 7.164062 16 16 16h80c8.835938 0 16 7.164062 16 16v57.375l68.6875-68.6875c3-3 7.070312-4.6875 11.3125-4.6875h240c8.835938 0 16-7.164062 16-16v-256c0-8.835938-7.164062-16-16-16zm0 0"/><path d="m160 144.5c-17.671875 0-32-14.328125-32-32s14.328125-32 32-32 32 14.328125 32 32-14.328125 32-32 32zm0 0"/><path d="m352 144.5c-17.671875 0-32-14.328125-32-32s14.328125-32 32-32 32 14.328125 32 32-14.328125 32-32 32zm0 0"/><path d="m256 288.5c-52.996094-.050781-95.945312-43.003906-96-96 0-8.835938 7.164062-16 16-16s16 7.164062 16 16c0 35.347656 28.652344 64 64 64s64-28.652344 64-64c0-8.835938 7.164062-16 16-16s16 7.164062 16 16c-.054688 52.996094-43.003906 95.945312-96 96zm0 0"/></svg>